# This file uses centimeters as units for non-parametric coordinates.

mtllib Obelisque.mtl
g default
v -2.500000 0.003767 2.500000
v 2.500000 0.003767 2.500000
v -2.500000 0.003767 -2.500000
v 2.500000 0.003767 -2.500000
v -2.412531 0.528474 2.412531
v -2.098944 0.703353 2.098944
v 2.098944 0.703353 2.098944
v 2.412531 0.528474 2.412531
v -2.098944 0.703353 -2.098944
v -2.412531 0.528474 -2.412531
v 2.098944 0.703353 -2.098944
v 2.412531 0.528474 -2.412531
v 2.098944 6.652539 2.098944
v -2.098944 6.652539 2.098944
v 2.098944 6.652539 -2.098944
v -2.098944 6.652539 -2.098944
v 1.937046 6.915442 1.937046
v 1.780183 7.003065 1.780183
v 1.780183 7.003065 -1.780183
v 1.937046 6.915442 -1.937046
v -1.937046 6.915442 1.937046
v -1.780183 7.003065 1.780183
v -1.937046 6.915442 -1.937046
v -1.780183 7.003065 -1.780183
v -0.000001 47.709435 0.021132
v 1.255220 44.317814 1.255221
v -1.255222 44.317814 1.255221
v 1.255220 44.317814 -1.255221
v -1.255222 44.317814 -1.255221
v -2.335002 6.029916 2.335002
v -2.098944 6.267470 2.098944
v 2.098944 6.267470 2.098944
v 2.335001 6.029916 2.335001
v 2.098944 6.267470 -2.098944
v 2.335002 6.029916 -2.335001
v -2.098944 6.267470 -2.098944
v -2.335002 6.029916 -2.335002
v -2.098944 5.414021 2.098944
v -2.335001 5.651576 2.335001
v 2.335001 5.651576 2.335001
v 2.098944 5.414021 2.098944
v 2.335001 5.651576 -2.335001
v 2.098944 5.414021 -2.098944
v -2.335001 5.651576 -2.335001
v -2.098944 5.414021 -2.098944
v -1.779177 8.183622 -1.779177
v 1.779177 8.183622 -1.779177
v 1.779177 8.183622 1.779177
v -1.779177 8.183621 1.779177
v 1.674386 15.410460 1.674386
v 1.674386 15.410460 -1.674386
v -1.674386 15.410460 -1.674386
v -1.674386 15.410460 1.674386
v 1.569594 22.637299 1.569595
v 1.569594 22.637299 -1.569595
v -1.569595 22.637299 -1.569595
v -1.569595 22.637299 1.569595
v 1.464803 29.864140 1.464803
v 1.464803 29.864140 -1.464803
v -1.464804 29.864140 -1.464803
v -1.464804 29.864140 1.464803
v 1.360011 37.090977 1.360012
v 1.360011 37.090977 -1.360012
v -1.360013 37.090977 -1.360012
v -1.360013 37.090977 1.360012
v 2.098944 4.471888 2.098944
v -2.098944 4.471888 2.098944
v -2.098944 4.471888 -2.098944
v 2.098944 4.471888 -2.098944
v 2.098944 3.529754 2.098944
v -2.098944 3.529754 2.098944
v -2.098944 3.529754 -2.098944
v 2.098944 3.529754 -2.098944
v 2.098944 2.587620 2.098944
v -2.098944 2.587620 2.098944
v -2.098944 2.587620 -2.098944
v 2.098944 2.587620 -2.098944
v 2.098944 1.645487 2.098944
v -2.098944 1.645487 2.098944
v -2.098944 1.645487 -2.098944
v 2.098944 1.645487 -2.098944
vt 0.375000 0.187506
vt 0.384298 0.259298
vt 0.384298 0.490702
vt 0.375000 0.562494
vt 0.625000 0.187506
vt 0.615702 0.259298
vt 0.625000 0.562494
vt 0.615702 0.490702
vt 0.375000 0.000000
vt 0.625000 0.000000
vt 0.625000 0.750000
vt 0.375000 0.750000
vt 0.875000 0.000000
vt 0.875000 0.187506
vt 0.125000 0.000000
vt 0.125000 0.187506
vt 0.594999 0.280001
vt 0.583284 0.291716
vt 0.416716 0.291716
vt 0.405001 0.280001
vt 0.594999 0.469999
vt 0.583284 0.458284
vt 0.405001 0.469999
vt 0.416716 0.458284
vt 0.615702 0.259298
vt 0.615702 0.490702
vt 0.384298 0.259298
vt 0.384298 0.490702
vt 0.500000 0.375000
vt 0.583284 0.291716
vt 0.583283 0.458284
vt 0.416716 0.291716
vt 0.416716 0.458283
vt 0.583284 0.291716
vt 0.416716 0.291716
vt 0.583284 0.458284
vt 0.416716 0.458284
vt 0.384298 0.259298
vt 0.384298 0.259298
vt 0.384298 0.490702
vt 0.384298 0.490702
vt 0.615702 0.259298
vt 0.615702 0.259298
vt 0.615702 0.490702
vt 0.615702 0.490702
vt 0.384298 0.259298
vt 0.384298 0.259298
vt 0.384298 0.490702
vt 0.384298 0.490702
vt 0.615702 0.259298
vt 0.615702 0.259298
vt 0.615702 0.490702
vt 0.615702 0.490702
vt 0.583284 0.291716
vt 0.583284 0.458284
vt 0.416716 0.458284
vt 0.416716 0.291716
vt 0.583284 0.291716
vt 0.583284 0.458284
vt 0.416716 0.458284
vt 0.416716 0.291716
vt 0.583284 0.291716
vt 0.583283 0.458284
vt 0.416716 0.458283
vt 0.416716 0.291716
vt 0.583284 0.291716
vt 0.583283 0.458284
vt 0.416716 0.458283
vt 0.416716 0.291716
vt 0.615702 0.259298
vt 0.384298 0.259298
vt 0.384298 0.490702
vt 0.615702 0.490702
vt 0.615702 0.259298
vt 0.384298 0.259298
vt 0.384298 0.490702
vt 0.615702 0.490702
vt 0.615702 0.259298
vt 0.384298 0.259298
vt 0.384298 0.490702
vt 0.615702 0.490702
vt 0.615702 0.259298
vt 0.384298 0.259298
vt 0.384298 0.490702
vt 0.615702 0.490702
vn -0.487056 0.873371 0.000000
vn -0.487056 0.873371 0.000000
vn -0.487056 0.873371 0.000000
vn -0.487056 0.873371 0.000000
vn 0.000000 0.873371 0.487056
vn 0.000000 0.873371 0.487056
vn 0.000000 0.873371 0.487056
vn 0.000000 0.873371 0.487056
vn 0.487056 0.873371 0.000000
vn 0.487056 0.873371 0.000000
vn 0.487056 0.873371 0.000000
vn 0.487056 0.873371 0.000000
vn 0.000000 0.873371 -0.487056
vn 0.000000 0.873371 -0.487056
vn 0.000000 0.873371 -0.487056
vn 0.000000 0.873371 -0.487056
vn 0.000000 0.164432 0.986389
vn 0.000000 0.164432 0.986389
vn 0.000000 0.164432 0.986389
vn 0.000000 0.164432 0.986389
vn 0.000000 0.164432 -0.986389
vn 0.000000 0.164432 -0.986389
vn 0.000000 0.164432 -0.986389
vn 0.000000 0.164432 -0.986389
vn 0.986389 0.164432 0.000000
vn 0.986389 0.164432 0.000000
vn 0.986389 0.164432 0.000000
vn 0.986389 0.164432 0.000000
vn -0.986389 0.164432 0.000000
vn -0.986389 0.164432 0.000000
vn -0.986389 0.164432 0.000000
vn -0.986389 0.164432 0.000000
vn 0.000000 0.646928 0.762551
vn 0.000000 0.873029 0.487669
vn 0.000000 0.873029 0.487669
vn 0.000000 0.646928 0.762551
vn 0.487670 0.873028 0.000000
vn 0.762552 0.646927 0.000000
vn 0.762552 0.646927 0.000000
vn 0.487670 0.873028 0.000000
vn 0.000000 0.873029 -0.487669
vn 0.000000 0.646928 -0.762551
vn 0.000000 0.646928 -0.762551
vn 0.000000 0.873029 -0.487669
vn -0.762552 0.646927 0.000000
vn -0.487670 0.873028 0.000000
vn -0.487670 0.873028 0.000000
vn -0.762552 0.646927 0.000000
vn 0.762552 0.646927 0.000000
vn 0.851497 0.524359 0.000000
vn 0.851497 0.524359 0.000000
vn 0.762552 0.646927 0.000000
vn 0.000000 0.524359 0.851497
vn 0.000000 0.646928 0.762551
vn 0.000000 0.646928 0.762551
vn 0.000000 0.524359 0.851497
vn -0.851497 0.524359 0.000000
vn -0.762552 0.646927 0.000000
vn -0.762552 0.646927 0.000000
vn -0.851497 0.524359 0.000000
vn 0.000000 0.646928 -0.762551
vn 0.000000 0.524359 -0.851497
vn 0.000000 0.524359 -0.851497
vn 0.000000 0.646928 -0.762551
vn 0.937833 0.347087 0.000000
vn 0.937833 0.347087 0.000000
vn 0.937833 0.347087 0.000000
vn 0.000000 0.341932 0.939725
vn 0.000000 0.341932 0.939725
vn 0.000000 0.341932 0.939725
vn -0.937833 0.347087 0.000000
vn -0.937833 0.347087 0.000000
vn -0.937833 0.347087 0.000000
vn 0.000000 0.352211 -0.935921
vn 0.000000 0.352211 -0.935921
vn 0.000000 0.352211 -0.935921
vn 0.000000 0.000852 1.000000
vn 0.000000 0.000852 1.000000
vn 0.000000 0.013995 0.999902
vn 0.000000 0.013995 0.999902
vn 1.000000 0.000852 0.000000
vn 1.000000 0.000852 0.000000
vn 0.999902 0.013995 0.000000
vn 0.999902 0.013995 0.000000
vn 0.000000 0.000852 -1.000000
vn 0.000000 0.000852 -1.000000
vn 0.000000 0.013995 -0.999902
vn 0.000000 0.013995 -0.999902
vn -1.000000 0.000852 0.000000
vn -1.000000 0.000852 0.000000
vn -0.999902 0.013994 0.000000
vn -0.999902 0.013994 0.000000
vn -0.943800 0.330518 0.000000
vn -0.924590 0.380963 0.000000
vn -0.924590 0.380963 0.000000
vn -0.943800 0.330518 0.000000
vn 0.000000 0.380963 0.924590
vn 0.000000 0.330518 0.943800
vn 0.000000 0.330518 0.943800
vn 0.000000 0.380963 0.924590
vn 0.924590 0.380963 0.000000
vn 0.943800 0.330518 0.000000
vn 0.943800 0.330518 0.000000
vn 0.924590 0.380963 0.000000
vn 0.000000 0.380963 -0.924590
vn 0.000000 0.330518 -0.943800
vn 0.000000 0.330518 -0.943800
vn 0.000000 0.380963 -0.924590
vn -0.998524 -0.054310 0.000000
vn -0.943800 -0.330518 0.000000
vn -0.943800 -0.330518 0.000000
vn -0.998524 -0.054310 0.000000
vn 0.000000 -0.330517 0.943800
vn 0.000000 -0.054311 0.998524
vn 0.000000 -0.054311 0.998524
vn 0.000000 -0.330517 0.943800
vn 0.943800 -0.330517 0.000000
vn 0.998524 -0.054310 0.000000
vn 0.998524 -0.054310 0.000000
vn 0.943800 -0.330517 0.000000
vn 0.000000 -0.330517 -0.943800
vn 0.000000 -0.054311 -0.998524
vn 0.000000 -0.054311 -0.998524
vn 0.000000 -0.330517 -0.943800
vn 0.000000 0.380963 0.924590
vn 0.000000 0.380963 0.924590
vn 0.000000 0.000000 1.000000
vn 0.000000 0.000000 1.000000
vn 0.924590 0.380963 0.000000
vn 0.924590 0.380963 0.000000
vn 1.000000 0.000000 0.000000
vn 1.000000 0.000000 0.000000
vn 0.000000 0.380963 -0.924590
vn 0.000000 0.380963 -0.924590
vn 0.000000 0.000000 -1.000000
vn 0.000000 0.000000 -1.000000
vn -0.924590 0.380963 0.000000
vn -0.924590 0.380963 0.000000
vn -1.000000 0.000000 0.000000
vn -1.000000 0.000000 0.000000
vn 0.000000 -0.330517 0.943800
vn 0.000000 -0.330517 0.943800
vn 0.000000 0.330518 0.943800
vn 0.000000 0.330518 0.943800
vn 0.943800 -0.330517 0.000000
vn 0.943800 -0.330517 0.000000
vn 0.943800 0.330518 0.000000
vn 0.943800 0.330518 0.000000
vn 0.000000 -0.330517 -0.943800
vn 0.000000 -0.330517 -0.943800
vn 0.000000 0.330518 -0.943800
vn 0.000000 0.330518 -0.943800
vn -0.943800 -0.330518 0.000000
vn -0.943800 -0.330518 0.000000
vn -0.943800 0.330518 0.000000
vn -0.943800 0.330518 0.000000
vn 0.000000 0.000000 1.000000
vn 0.000000 0.000000 1.000000
vn 0.000000 0.000000 1.000000
vn 0.000000 0.000000 1.000000
vn 1.000000 0.000000 0.000000
vn 1.000000 0.000000 0.000000
vn 1.000000 0.000000 0.000000
vn 1.000000 0.000000 0.000000
vn 0.000000 0.000000 -1.000000
vn 0.000000 0.000000 -1.000000
vn 0.000000 0.000000 -1.000000
vn 0.000000 0.000000 -1.000000
vn -1.000000 0.000000 0.000000
vn -1.000000 0.000000 0.000000
vn -1.000000 0.000000 0.000000
vn -1.000000 0.000000 0.000000
vn 0.000000 0.014499 -0.999895
vn 0.000000 0.014499 -0.999895
vn 0.000000 0.014499 -0.999895
vn 0.000000 0.014499 -0.999895
vn 0.999895 0.014499 0.000000
vn 0.999895 0.014499 0.000000
vn 0.999895 0.014499 0.000000
vn 0.999895 0.014499 0.000000
vn 0.000000 0.014499 0.999895
vn 0.000000 0.014499 0.999895
vn 0.000000 0.014499 0.999895
vn 0.000000 0.014499 0.999895
vn -0.999895 0.014499 0.000000
vn -0.999895 0.014499 0.000000
vn -0.999895 0.014499 0.000000
vn -0.999895 0.014499 0.000000
vn 0.999902 0.013995 0.000000
vn 0.999902 0.013995 0.000000
vn 0.999895 0.014499 0.000000
vn 0.999895 0.014499 0.000000
vn 0.000000 0.013995 -0.999902
vn 0.000000 0.013995 -0.999902
vn 0.000000 0.014499 -0.999895
vn 0.000000 0.014499 -0.999895
vn -0.999902 0.013994 0.000000
vn -0.999902 0.013994 0.000000
vn -0.999895 0.014499 0.000000
vn -0.999895 0.014499 0.000000
vn 0.000000 0.013995 0.999902
vn 0.000000 0.013995 0.999902
vn -0.000000 0.014499 0.999895
vn -0.000000 0.014499 0.999895
vn 0.999895 0.014499 0.000000
vn 0.999895 0.014499 0.000000
vn 0.000000 0.014499 -0.999895
vn 0.000000 0.014499 -0.999895
vn -0.999895 0.014499 0.000000
vn -0.999895 0.014499 0.000000
vn -0.000000 0.014499 0.999895
vn -0.000000 0.014499 0.999895
vn 0.999895 0.014499 0.000000
vn 0.999895 0.014499 0.000000
vn 0.000000 0.014499 -0.999895
vn 0.000000 0.014499 -0.999895
vn -0.999895 0.014499 0.000000
vn -0.999895 0.014499 0.000000
vn 0.000000 0.014499 0.999895
vn 0.000000 0.014499 0.999895
vn 0.000000 0.000000 1.000000
vn 0.000000 0.000000 1.000000
vn 0.000000 -0.054311 0.998524
vn 0.000000 -0.054311 0.998524
vn -1.000000 0.000000 0.000000
vn -1.000000 0.000000 0.000000
vn -0.998524 -0.054310 0.000000
vn -0.998524 -0.054310 0.000000
vn 0.000000 0.000000 -1.000000
vn 0.000000 0.000000 -1.000000
vn 0.000000 -0.054311 -0.998524
vn 0.000000 -0.054311 -0.998524
vn 1.000000 0.000000 0.000000
vn 1.000000 0.000000 0.000000
vn 0.998524 -0.054310 0.000000
vn 0.998524 -0.054310 0.000000
vn 0.000000 0.000000 1.000000
vn 0.000000 0.000000 1.000000
vn -1.000000 0.000000 0.000000
vn -1.000000 0.000000 0.000000
vn 0.000000 0.000000 -1.000000
vn 0.000000 0.000000 -1.000000
vn 1.000000 0.000000 0.000000
vn 1.000000 0.000000 0.000000
vn 0.000000 0.000000 1.000000
vn 0.000000 0.000000 1.000000
vn -1.000000 0.000000 0.000000
vn -1.000000 0.000000 0.000000
vn 0.000000 0.000000 -1.000000
vn 0.000000 0.000000 -1.000000
vn 1.000000 0.000000 0.000000
vn 1.000000 0.000000 0.000000
s off
g initialShadingGroup OBELISQUE_Model
f 5/1/1 6/2/2 9/3/3 10/4/4
f 6/2/5 5/1/6 8/5/7 7/6/8
f 7/6/9 8/5/10 12/7/11 11/8/12
f 10/4/13 9/3/14 11/8/15 12/7/16
f 1/9/17 2/10/18 8/5/19 5/1/20
f 10/4/21 12/7/22 4/11/23 3/12/24
f 2/10/25 4/13/26 12/14/27 8/5/28
f 3/15/29 1/9/30 5/1/31 10/16/32
f 17/17/33 18/18/34 22/19/35 21/20/36
f 18/18/37 17/17/38 20/21/39 19/22/40
f 19/22/41 20/21/42 23/23/43 24/24/44
f 21/20/45 22/19/46 24/24/47 23/23/48
f 17/17/49 13/25/50 15/26/51 20/21/52
f 13/25/53 17/17/54 21/20/55 14/27/56
f 14/27/57 21/20/58 23/23/59 16/28/60
f 20/21/61 15/26/62 16/28/63 23/23/64
f 25/29/65 26/30/66 28/31/67
f 26/30/68 25/29/69 27/32/70
f 27/32/71 25/29/72 29/33/73
f 25/29/74 28/31/75 29/33/76
f 22/19/77 18/18/78 48/34/79 49/35/80
f 18/18/81 19/22/82 47/36/83 48/34/84
f 19/22/85 24/24/86 46/37/87 47/36/88
f 24/24/89 22/19/90 49/35/91 46/37/92
f 30/38/93 31/39/94 36/40/95 37/41/96
f 31/39/97 30/38/98 33/42/99 32/43/100
f 32/43/101 33/42/102 35/44/103 34/45/104
f 34/45/105 35/44/106 37/41/107 36/40/108
f 38/46/109 39/47/110 44/48/111 45/49/112
f 39/47/113 38/46/114 41/50/115 40/51/116
f 40/51/117 41/50/118 43/52/119 42/53/120
f 42/53/121 43/52/122 45/49/123 44/48/124
f 31/39/125 32/43/126 13/25/127 14/27/128
f 32/43/129 34/45/130 15/26/131 13/25/132
f 34/45/133 36/40/134 16/28/135 15/26/136
f 36/40/137 31/39/138 14/27/139 16/28/140
f 39/47/141 40/51/142 33/42/143 30/38/144
f 40/51/145 42/53/146 35/44/147 33/42/148
f 42/53/149 44/48/150 37/41/151 35/44/152
f 44/48/153 39/47/154 30/38/155 37/41/156
s 1
f 6/2/157 7/6/158 78/82/159 79/83/160
s 2
f 7/6/161 11/8/162 81/85/163 78/82/164
s 3
f 11/8/165 9/3/166 80/84/167 81/85/168
s 4
f 9/3/169 6/2/170 79/83/171 80/84/172
s 5
f 63/67/173 64/68/174 29/33/175 28/31/176
s 6
f 62/66/177 63/67/178 28/31/179 26/30/180
s 7
f 65/69/181 62/66/182 26/30/183 27/32/184
s 8
f 64/68/185 65/69/186 27/32/187 29/33/188
s 6
f 48/34/189 47/36/190 51/55/191 50/54/192
s 5
f 47/36/193 46/37/194 52/56/195 51/55/196
s 8
f 46/37/197 49/35/198 53/57/199 52/56/200
s 7
f 49/35/201 48/34/202 50/54/203 53/57/204
s 6
f 50/54/192 51/55/191 55/59/205 54/58/206
s 5
f 51/55/196 52/56/195 56/60/207 55/59/208
s 8
f 52/56/200 53/57/199 57/61/209 56/60/210
s 7
f 53/57/204 50/54/203 54/58/211 57/61/212
s 6
f 54/58/206 55/59/205 59/63/213 58/62/214
s 5
f 55/59/208 56/60/207 60/64/215 59/63/216
s 8
f 56/60/210 57/61/209 61/65/217 60/64/218
s 7
f 57/61/212 54/58/211 58/62/219 61/65/220
s 6
f 58/62/214 59/63/213 63/67/178 62/66/177
s 5
f 59/63/216 60/64/215 64/68/174 63/67/173
s 8
f 60/64/218 61/65/217 65/69/186 64/68/185
s 7
f 61/65/220 58/62/219 62/66/182 65/69/181
s 1
f 67/71/221 66/70/222 41/50/223 38/46/224
s 4
f 68/72/225 67/71/226 38/46/227 45/49/228
s 3
f 69/73/229 68/72/230 45/49/231 43/52/232
s 2
f 66/70/233 69/73/234 43/52/235 41/50/236
s 1
f 71/75/237 70/74/238 66/70/222 67/71/221
s 4
f 72/76/239 71/75/240 67/71/226 68/72/225
s 3
f 73/77/241 72/76/242 68/72/230 69/73/229
s 2
f 70/74/243 73/77/244 69/73/234 66/70/233
s 1
f 75/79/245 74/78/246 70/74/238 71/75/237
s 4
f 76/80/247 75/79/248 71/75/240 72/76/239
s 3
f 77/81/249 76/80/250 72/76/242 73/77/241
s 2
f 74/78/251 77/81/252 73/77/244 70/74/243
s 1
f 79/83/160 78/82/159 74/78/246 75/79/245
s 4
f 80/84/172 79/83/171 75/79/248 76/80/247
s 3
f 81/85/168 80/84/167 76/80/250 77/81/249
s 2
f 78/82/164 81/85/163 77/81/252 74/78/251
