# This file uses centimeters as units for non-parametric coordinates.

mtllib PYRAMIDE_Model.mtl
g default
v -5.370040 0.073022 5.370040
v 0.000000 8.027259 0.000000
v 5.370040 0.073022 5.370040
v -5.370040 0.073022 -5.370040
v 5.370040 0.073022 -5.370040
v -0.693893 6.999448 0.693893
v -0.693893 6.999447 -0.693893
v 0.693893 6.999448 0.693893
v 0.693893 6.999448 -0.693893
v -1.354774 6.020534 1.354774
v 1.354774 6.020534 1.354774
v 1.360181 6.012526 -1.360181
v -1.360180 6.012526 -1.360180
v -2.027707 5.023770 2.027707
v 2.027707 5.023770 2.027707
v 2.033456 5.015255 -2.033456
v -2.033455 5.015256 -2.033455
v -2.691408 4.040678 2.691408
v 2.691408 4.040678 2.691408
v 2.699893 4.028113 -2.699893
v -2.699892 4.028113 -2.699892
v -3.384202 3.014495 3.384201
v 3.384202 3.014495 3.384201
v 3.391677 3.003423 -3.391678
v -3.391677 3.003423 -3.391678
v -4.057570 2.017085 4.057570
v 4.057570 2.017085 4.057570
v 4.066577 2.003745 -4.066577
v -4.066577 2.003745 -4.066577
v -4.720334 1.035382 4.720334
v 4.720334 1.035382 4.720334
v 4.728210 1.023717 -4.728210
v -4.728210 1.023717 -4.728210
vt 0.375000 0.562494
vt 0.500000 0.375000
vt 0.375000 0.187506
vt 0.625000 0.562494
vt 0.625000 0.187506
vt 0.483848 0.350773
vt 0.483848 0.399227
vt 0.516152 0.350773
vt 0.516152 0.399227
vt 0.468465 0.327698
vt 0.531536 0.327698
vt 0.531661 0.422490
vt 0.468339 0.422490
vt 0.452800 0.304203
vt 0.547200 0.304203
vt 0.547333 0.445998
vt 0.452667 0.445998
vt 0.437351 0.281030
vt 0.562649 0.281030
vt 0.562846 0.469266
vt 0.437154 0.469266
vt 0.421225 0.256841
vt 0.578775 0.256841
vt 0.578949 0.493420
vt 0.421051 0.493420
vt 0.405551 0.233331
vt 0.594449 0.233331
vt 0.594659 0.516984
vt 0.405341 0.516984
vt 0.390123 0.210191
vt 0.609877 0.210191
vt 0.610060 0.540084
vt 0.389940 0.540084
vn -0.828804 0.559539 0.000000
vn -0.828804 0.559539 0.000000
vn -0.828804 0.559539 0.000000
vn -0.828804 0.559539 0.000000
vn 0.000000 0.559540 0.828804
vn 0.000000 0.559539 0.828804
vn 0.000000 0.559539 0.828804
vn 0.828804 0.559540 0.000000
vn 0.828804 0.559540 0.000000
vn 0.828804 0.559540 0.000000
vn 0.000000 0.559539 -0.828804
vn 0.000000 0.559539 -0.828804
vn 0.000000 0.559539 -0.828804
vn 0.000000 0.559539 -0.828804
vn -0.828804 0.559540 -0.000000
vn -0.828804 0.559540 -0.000000
vn -0.828804 0.559540 -0.000001
vn 0.000000 0.559539 0.828804
vn 0.000000 0.559539 0.828804
vn 0.828804 0.559539 0.000000
vn 0.828804 0.559539 0.000000
vn -0.000000 0.559540 -0.828804
vn -0.000000 0.559540 -0.828804
vn -0.000000 0.559540 -0.828803
vn -0.828804 0.559539 -0.000000
vn -0.828804 0.559539 -0.000000
vn -0.000000 0.559539 -0.828804
vn -0.000000 0.559539 -0.828804
vn 0.000000 0.559539 0.828804
vn 0.000000 0.559539 0.828804
vn 0.828804 0.559539 0.000000
vn 0.828804 0.559539 0.000000
vn -0.828804 0.559540 0.000000
vn -0.828804 0.559540 0.000000
vn -0.000000 0.559540 -0.828804
vn -0.000000 0.559540 -0.828804
vn 0.000000 0.559539 0.828804
vn 0.000000 0.559539 0.828804
vn 0.828804 0.559539 0.000000
vn 0.828804 0.559539 0.000000
vn -0.828804 0.559539 0.000000
vn -0.828804 0.559539 0.000000
vn -0.000000 0.559539 -0.828804
vn -0.000000 0.559540 -0.828804
vn 0.000000 0.559540 0.828804
vn 0.000000 0.559540 0.828804
vn 0.828804 0.559539 0.000000
vn 0.828804 0.559540 0.000000
vn -0.828804 0.559539 0.000000
vn -0.828804 0.559539 0.000000
vn 0.000000 0.559539 -0.828804
vn 0.000000 0.559539 -0.828804
vn 0.000000 0.559539 0.828804
vn 0.000000 0.559539 0.828804
vn 0.828804 0.559539 0.000000
vn 0.828804 0.559539 0.000000
vn -0.828804 0.559539 0.000000
vn -0.828804 0.559539 0.000000
vn 0.000000 0.559539 -0.828804
vn 0.000000 0.559539 -0.828804
vn 0.000000 0.559539 0.828804
vn 0.000000 0.559539 0.828804
vn 0.828804 0.559539 0.000000
vn 0.828804 0.559539 0.000000
vn 0.000000 0.559540 0.828804
vn 0.000000 0.559540 0.828804
vn 0.828803 0.559540 0.000000
vn 0.828803 0.559540 0.000000
s 1
g pCube1
usemtl initialShadingGroup
f 1/3/1 30/30/2 33/33/3 4/1/4
s 2
f 2/2/5 6/6/6 8/8/7
s 3
f 2/2/8 8/8/9 9/9/10
s 4
f 4/1/11 33/33/12 32/32/13 5/4/14
s 1
f 7/7/15 6/6/16 2/2/17
s 2
f 8/8/7 6/6/6 10/10/18 11/11/19
s 3
f 9/9/10 8/8/9 11/11/20 12/12/21
s 4
f 9/9/22 7/7/23 2/2/24
s 1
f 13/13/25 10/10/26 6/6/16 7/7/15
s 4
f 12/12/27 13/13/28 7/7/23 9/9/22
s 2
f 11/11/19 10/10/18 14/14/29 15/15/30
s 3
f 12/12/21 11/11/20 15/15/31 16/16/32
s 1
f 17/17/33 14/14/34 10/10/26 13/13/25
s 4
f 16/16/35 17/17/36 13/13/28 12/12/27
s 2
f 15/15/30 14/14/29 18/18/37 19/19/38
s 3
f 16/16/32 15/15/31 19/19/39 20/20/40
s 1
f 21/21/41 18/18/42 14/14/34 17/17/33
s 4
f 20/20/43 21/21/44 17/17/36 16/16/35
s 2
f 19/19/38 18/18/37 22/22/45 23/23/46
s 3
f 20/20/40 19/19/39 23/23/47 24/24/48
s 1
f 25/25/49 22/22/50 18/18/42 21/21/41
s 4
f 24/24/51 25/25/52 21/21/44 20/20/43
s 2
f 23/23/46 22/22/45 26/26/53 27/27/54
s 3
f 24/24/48 23/23/47 27/27/55 28/28/56
s 1
f 29/29/57 26/26/58 22/22/50 25/25/49
s 4
f 28/28/59 29/29/60 25/25/52 24/24/51
s 2
f 27/27/54 26/26/53 30/30/61 31/31/62
s 3
f 28/28/56 27/27/55 31/31/63 32/32/64
s 1
f 33/33/3 30/30/2 26/26/58 29/29/57
s 4
f 32/32/13 33/33/12 29/29/60 28/28/59
s 2
f 31/31/62 30/30/61 1/3/65 3/5/66
s 3
f 32/32/64 31/31/63 3/5/67 5/4/68
