# This file uses meters as units for non-parametric coordinates.

mtllib OBELISQUE_Model.mtl
g default
v -2.500000 0.003767 2.500000
v 2.500000 0.003767 2.500000
v -2.500000 0.003767 -2.500000
v 2.500000 0.003767 -2.500000
v -2.412531 0.528474 2.412531
v -2.098944 0.703353 2.098944
v 2.098944 0.703353 2.098944
v 2.412531 0.528474 2.412531
v -2.098944 0.703353 -2.098944
v -2.412531 0.528474 -2.412531
v 2.098944 0.703353 -2.098944
v 2.412531 0.528474 -2.412531
v 2.098944 6.652539 2.098944
v -2.098944 6.652539 2.098944
v 2.098944 6.652539 -2.098944
v -2.098944 6.652539 -2.098944
v 1.937046 6.915442 1.937046
v 1.780183 7.003065 1.780183
v 1.780183 7.003065 -1.780183
v 1.937046 6.915442 -1.937046
v -1.937046 6.915442 1.937046
v -1.780183 7.003065 1.780183
v -1.937046 6.915442 -1.937046
v -1.780183 7.003065 -1.780183
v -0.000001 47.709433 0.021132
v 1.255220 44.317815 1.255221
v -1.255222 44.317815 1.255221
v 1.255220 44.317815 -1.255221
v -1.255222 44.317815 -1.255221
v -2.335002 6.029916 2.335002
v -2.098944 6.267470 2.098944
v 2.098944 6.267470 2.098944
v 2.335001 6.029916 2.335001
v 2.098944 6.267470 -2.098944
v 2.335002 6.029916 -2.335001
v -2.098944 6.267470 -2.098944
v -2.335002 6.029916 -2.335002
v -2.098944 5.414021 2.098944
v -2.335001 5.651576 2.335001
v 2.335001 5.651576 2.335001
v 2.098944 5.414021 2.098944
v 2.335001 5.651576 -2.335001
v 2.098944 5.414021 -2.098944
v -2.335001 5.651576 -2.335001
v -2.098944 5.414021 -2.098944
v -1.779177 8.183622 -1.779177
v 1.779177 8.183622 -1.779177
v 1.779177 8.183622 1.779177
v -1.779177 8.183621 1.779177
vt 0.625000 0.750000
vt 0.375000 1.000000
vt 0.625000 1.000000
vt 0.375000 0.562494
vt 0.625000 0.000000
vt 0.375000 0.187506
vt 0.625000 0.562494
vt 0.375000 0.750000
vt 0.875000 0.000000
vt 0.875000 0.187506
vt 0.625000 0.187506
vt 0.125000 0.000000
vt 0.375000 0.000000
vt 0.125000 0.187506
vt 0.594999 0.280001
vt 0.405001 0.280001
vt 0.405001 0.469999
vt 0.594999 0.469999
vt 0.500000 0.375000
vt 0.583284 0.291716
vt 0.416716 0.291716
vt 0.583284 0.458284
vt 0.583284 0.291716
vt 0.416716 0.458284
vt 0.583283 0.458284
vt 0.416716 0.291716
vt 0.416716 0.458283
vt 0.615702 0.259298
vt 0.384298 0.259298
vt 0.615702 0.490702
vt 0.615702 0.259298
vt 0.384298 0.490702
vt 0.615702 0.490702
vt 0.384298 0.259298
vt 0.384298 0.490702
vt 0.615702 0.259298
vt 0.384298 0.259298
vt 0.615702 0.490702
vt 0.615702 0.259298
vt 0.384298 0.490702
vt 0.615702 0.490702
vt 0.384298 0.259298
vt 0.384298 0.490702
vt 0.615702 0.259298
vt 0.384298 0.259298
vt 0.615702 0.490702
vt 0.615702 0.259298
vt 0.384298 0.490702
vt 0.615702 0.490702
vt 0.384298 0.259298
vt 0.384298 0.490702
vt 0.416716 0.458284
vt 0.583284 0.458284
vt 0.583284 0.291716
vt 0.416716 0.291716
vn 0.000000 -1.000000 0.000000
vn 0.000000 -1.000000 0.000000
vn 0.000000 -1.000000 0.000000
vn 0.000000 -1.000000 0.000000
vn -0.487056 0.873371 0.000000
vn -0.487056 0.873371 0.000000
vn -0.487056 0.873371 0.000000
vn -0.487056 0.873371 0.000000
vn 0.000000 0.873371 0.487056
vn 0.000000 0.873371 0.487056
vn 0.000000 0.873371 0.487056
vn 0.000000 0.873371 0.487056
vn 0.487056 0.873371 0.000000
vn 0.487056 0.873371 0.000000
vn 0.487056 0.873371 0.000000
vn 0.487056 0.873371 0.000000
vn 0.000000 0.873371 -0.487056
vn 0.000000 0.873371 -0.487056
vn 0.000000 0.873371 -0.487056
vn 0.000000 0.873371 -0.487056
vn 0.000000 0.164432 0.986389
vn 0.000000 0.164432 0.986389
vn 0.000000 0.164432 0.986389
vn 0.000000 0.164432 0.986389
vn 0.000000 0.164432 -0.986389
vn 0.000000 0.164432 -0.986389
vn 0.000000 0.164432 -0.986389
vn 0.000000 0.164432 -0.986389
vn 0.986389 0.164432 0.000000
vn 0.986389 0.164432 0.000000
vn 0.986389 0.164432 0.000000
vn 0.986389 0.164432 0.000000
vn -0.986389 0.164432 0.000000
vn -0.986389 0.164432 0.000000
vn -0.986389 0.164432 0.000000
vn -0.986389 0.164432 0.000000
vn 0.000000 0.646928 0.762551
vn 0.000000 0.873029 0.487669
vn 0.000000 0.873029 0.487669
vn 0.000000 0.646928 0.762551
vn 0.487670 0.873028 0.000000
vn 0.762552 0.646927 0.000000
vn 0.762552 0.646927 0.000000
vn 0.487670 0.873028 0.000000
vn 0.000000 0.873029 -0.487669
vn 0.000000 0.646928 -0.762551
vn 0.000000 0.646928 -0.762551
vn 0.000000 0.873029 -0.487669
vn -0.762552 0.646927 0.000000
vn -0.487670 0.873028 0.000000
vn -0.487670 0.873028 0.000000
vn -0.762552 0.646927 0.000000
vn 0.851497 0.524359 0.000000
vn 0.851497 0.524359 0.000000
vn 0.000000 0.524359 0.851497
vn 0.000000 0.524359 0.851497
vn -0.851497 0.524359 0.000000
vn -0.851497 0.524359 0.000000
vn 0.000000 0.524359 -0.851497
vn 0.000000 0.524359 -0.851497
vn 0.937833 0.347087 0.000000
vn 0.937833 0.347087 0.000000
vn 0.937833 0.347087 0.000000
vn 0.000000 0.341932 0.939725
vn 0.000000 0.341932 0.939725
vn 0.000000 0.341932 0.939725
vn -0.937833 0.347087 0.000000
vn -0.937833 0.347087 0.000000
vn -0.937833 0.347087 0.000000
vn 0.000000 0.352211 -0.935921
vn 0.000000 0.352211 -0.935921
vn 0.000000 0.352211 -0.935921
vn 0.000000 0.000852 1.000000
vn 0.000000 0.000852 1.000000
vn 0.000000 0.013995 0.999902
vn 0.000000 0.013995 0.999902
vn 1.000000 0.000852 0.000000
vn 1.000000 0.000852 0.000000
vn 0.999902 0.013995 0.000000
vn 0.999902 0.013995 0.000000
vn 0.000000 0.000852 -1.000000
vn 0.000000 0.000852 -1.000000
vn 0.000000 0.013995 -0.999902
vn 0.000000 0.013995 -0.999902
vn -1.000000 0.000852 0.000000
vn -1.000000 0.000852 0.000000
vn -0.999902 0.013994 0.000000
vn -0.999902 0.013994 0.000000
vn -0.943800 0.330518 0.000000
vn -0.924590 0.380963 0.000000
vn -0.924590 0.380963 0.000000
vn -0.943800 0.330518 0.000000
vn 0.000000 0.380963 0.924590
vn 0.000000 0.330518 0.943800
vn 0.000000 0.330518 0.943800
vn 0.000000 0.380963 0.924590
vn 0.924590 0.380963 0.000000
vn 0.943800 0.330518 0.000000
vn 0.943800 0.330518 0.000000
vn 0.924590 0.380963 0.000000
vn 0.000000 0.380963 -0.924590
vn 0.000000 0.330518 -0.943800
vn 0.000000 0.330518 -0.943800
vn 0.000000 0.380963 -0.924590
vn -0.998524 -0.054310 0.000000
vn -0.943800 -0.330518 0.000000
vn -0.943800 -0.330518 0.000000
vn -0.998524 -0.054310 0.000000
vn 0.000000 -0.330517 0.943800
vn 0.000000 -0.054311 0.998524
vn 0.000000 -0.054311 0.998524
vn 0.000000 -0.330517 0.943800
vn 0.943800 -0.330517 0.000000
vn 0.998524 -0.054310 0.000000
vn 0.998524 -0.054310 0.000000
vn 0.943800 -0.330517 0.000000
vn 0.000000 -0.330517 -0.943800
vn 0.000000 -0.054311 -0.998524
vn 0.000000 -0.054311 -0.998524
vn 0.000000 -0.330517 -0.943800
vn 0.000000 0.000000 1.000000
vn 0.000000 0.000000 1.000000
vn 1.000000 0.000000 0.000000
vn 1.000000 0.000000 0.000000
vn 0.000000 0.000000 -1.000000
vn 0.000000 0.000000 -1.000000
vn -1.000000 0.000000 0.000000
vn -1.000000 0.000000 0.000000
vn 0.000000 0.000000 1.000000
vn 0.000000 0.000000 1.000000
vn 1.000000 0.000000 0.000000
vn 1.000000 0.000000 0.000000
vn 0.000000 0.000000 -1.000000
vn 0.000000 0.000000 -1.000000
vn -1.000000 0.000000 0.000000
vn -1.000000 0.000000 0.000000
vn 0.000000 0.014499 -0.999895
vn 0.000000 0.014499 -0.999895
vn 0.999895 0.014499 0.000000
vn 0.999895 0.014499 0.000000
vn 0.000000 0.014499 0.999895
vn 0.000000 0.014499 0.999895
vn -0.999895 0.014499 0.000000
vn -0.999895 0.014499 0.000000
s off
g OBELISQUE_Model
usemtl lambert2SG
f 3/8/1 4/1/2 2/3/3 1/2/4
f 5/6/5 6/50/6 9/48/7 10/4/8
f 6/50/9 5/6/10 8/11/11 7/44/12
f 7/44/13 8/11/14 12/7/15 11/46/16
f 10/4/17 9/48/18 11/46/19 12/7/20
f 1/13/21 2/5/22 8/11/23 5/6/24
f 10/4/25 12/7/26 4/1/27 3/8/28
f 2/5/29 4/9/30 12/10/31 8/11/32
f 3/12/33 1/13/34 5/6/35 10/14/36
s 1
f 17/15/37 18/20/38 22/26/39 21/16/40
s 2
f 18/20/41 17/15/42 20/18/43 19/22/44
s 3
f 19/22/45 20/18/46 23/17/47 24/24/48
s 4
f 21/16/49 22/26/50 24/24/51 23/17/52
s 2
f 17/15/42 13/31/53 15/33/54 20/18/43
s 1
f 13/31/55 17/15/37 21/16/40 14/29/56
s 4
f 14/29/57 21/16/49 23/17/52 16/35/58
s 3
f 20/18/46 15/33/59 16/35/60 23/17/47
s off
f 25/19/61 26/23/62 28/25/63
f 26/23/64 25/19/65 27/21/66
f 27/21/67 25/19/68 29/27/69
f 25/19/70 28/25/71 29/27/72
s 5
f 22/26/73 18/20/74 48/54/75 49/55/76
s 6
f 18/20/77 19/22/78 47/53/79 48/54/80
s 7
f 19/22/81 24/24/82 46/52/83 47/53/84
s 8
f 24/24/85 22/26/86 49/55/87 46/52/88
s 9
f 30/37/89 31/34/90 36/32/91 37/43/92
s 10
f 31/34/93 30/37/94 33/39/95 32/28/96
s 11
f 32/28/97 33/39/98 35/41/99 34/30/100
s 12
f 34/30/101 35/41/102 37/43/103 36/32/104
s 9
f 38/45/105 39/42/106 44/40/107 45/51/108
s 10
f 39/42/109 38/45/110 41/47/111 40/36/112
s 11
f 40/36/113 41/47/114 43/49/115 42/38/116
s 12
f 42/38/117 43/49/118 45/51/119 44/40/120
s 10
f 31/34/93 32/28/96 13/31/121 14/29/122
s 11
f 32/28/97 34/30/100 15/33/123 13/31/124
s 12
f 34/30/101 36/32/104 16/35/125 15/33/126
s 9
f 36/32/91 31/34/90 14/29/127 16/35/128
s 10
f 39/42/109 40/36/112 33/39/95 30/37/94
s 11
f 40/36/113 42/38/116 35/41/99 33/39/98
s 12
f 42/38/117 44/40/120 37/43/103 35/41/102
s 9
f 44/40/107 39/42/106 30/37/89 37/43/92
s 10
f 6/50/129 7/44/130 41/47/111 38/45/110
s 11
f 7/44/131 11/46/132 43/49/115 41/47/114
s 12
f 11/46/133 9/48/134 45/51/119 43/49/118
s 9
f 9/48/135 6/50/136 38/45/105 45/51/108
s 7
f 47/53/84 46/52/83 29/27/137 28/25/138
s 6
f 48/54/80 47/53/79 28/25/139 26/23/140
s 5
f 49/55/76 48/54/75 26/23/141 27/21/142
s 8
f 46/52/88 49/55/87 27/21/143 29/27/144
